<svg xmlns="http://www.w3.org/2000/svg" width="76" height="76" viewBox="0 0 76 76" fill="none">
<g clip-path="url(#clip0_730_1018)">
<path d="M38 76C58.9868 76 76 58.9868 76 38C76 17.0132 58.9868 0 38 0C17.0132 0 0 17.0132 0 38C0 58.9868 17.0132 76 38 76Z" fill="#FF007A"/>
<path d="M29.1185 13.697C28.4417 13.5925 28.4132 13.5783 28.7314 13.5308C29.3418 13.4358 30.7858 13.5664 31.7809 13.8015C34.1013 14.3549 36.2127 15.768 38.4689 18.2784L39.0674 18.9434L39.9224 18.808C43.5324 18.2261 47.2065 18.6892 50.2774 20.1071C51.1229 20.4966 52.4553 21.2732 52.6215 21.4751C52.6762 21.5369 52.7735 21.9478 52.8377 22.3847C53.0657 23.8976 52.9517 25.0566 52.4909 25.9235C52.2392 26.3937 52.2249 26.541 52.3935 26.9447C52.4736 27.1115 52.5988 27.2525 52.755 27.3516C52.9112 27.4506 53.0921 27.5039 53.277 27.5052C54.0418 27.5052 54.8635 26.2702 55.2435 24.5531L55.3955 23.8715L55.6948 24.2111C57.3383 26.0731 58.6279 28.612 58.8488 30.417L58.9082 30.8896L58.6303 30.4621C58.1553 29.7259 57.6803 29.2224 57.0675 28.8162C55.9655 28.0871 54.7994 27.8401 51.7119 27.6762C48.9237 27.529 47.3443 27.2915 45.7815 26.7809C43.1192 25.914 41.7773 24.7574 38.6138 20.6082C37.2102 18.7652 36.3409 17.7464 35.4788 16.927C33.5147 15.0602 31.5862 14.0818 29.1185 13.697Z" fill="white"/>
<path d="M53.251 17.8127C53.3222 16.5777 53.4885 15.763 53.8257 15.0197C53.9587 14.7252 54.0846 14.4829 54.1036 14.4829C54.0824 14.6496 54.0385 14.8127 53.973 14.9674C53.7283 15.6894 53.688 16.6774 53.8566 17.8245C54.0703 19.2828 54.1938 19.4918 55.7328 21.0664C56.4572 21.805 57.298 22.736 57.602 23.1374L58.1553 23.8642L57.602 23.344C56.9251 22.7099 55.3671 21.4678 55.0227 21.292C54.7923 21.1733 54.7567 21.1757 54.6142 21.3158C54.4836 21.4488 54.4551 21.6435 54.4385 22.5722C54.41 24.0162 54.2128 24.9472 53.7355 25.8734C53.479 26.3722 53.4386 26.2677 53.6713 25.7C53.8447 25.2773 53.8613 25.092 53.8613 23.6932C53.8613 20.8812 53.5265 20.2067 51.5671 19.0477C50.9775 18.7056 50.372 18.3917 49.7526 18.1072C49.4466 17.9844 49.1497 17.84 48.8643 17.6749C48.919 17.6203 50.8285 18.176 51.5956 18.4729C52.7403 18.9123 52.928 18.9693 53.0681 18.9147C53.1607 18.879 53.2058 18.6083 53.251 17.8127ZM30.4343 22.622C29.0592 20.7292 28.209 17.8245 28.3918 15.6538L28.4488 14.9817L28.7623 15.0387C29.3513 15.1455 30.3655 15.5232 30.8405 15.8129C32.142 16.6038 32.7072 17.6464 33.2796 20.3207C33.4482 21.1044 33.6691 21.9903 33.7712 22.2919C33.9327 22.774 34.5502 23.9022 35.0537 24.636C35.4147 25.1633 35.1725 25.4127 34.3745 25.3414C33.1537 25.2298 31.5007 24.0898 30.4343 22.622ZM51.5837 36.7177C45.1546 34.1289 42.8912 31.8822 42.8912 28.0917C42.8912 27.5335 42.9102 27.0775 42.9316 27.0775C42.9553 27.0775 43.2047 27.2604 43.485 27.486C44.7888 28.531 46.2495 28.9775 50.2893 29.5665C52.6667 29.9157 54.0062 30.1959 55.2412 30.6044C59.1647 31.9059 61.5919 34.5469 62.1715 38.1427C62.3377 39.1877 62.2403 41.147 61.9672 42.1802C61.7534 42.9972 61.0956 44.4673 60.9222 44.5243C60.8747 44.5385 60.8272 44.3557 60.813 44.1015C60.7465 42.7525 60.0648 41.4368 58.9177 40.4512C57.6138 39.3325 55.8658 38.4395 51.5837 36.7177ZM47.0712 37.7912C46.9953 37.3324 46.8913 36.8787 46.7601 36.4327L46.5938 35.9434L46.9002 36.2854C47.3206 36.7604 47.6555 37.3637 47.9357 38.1712C48.1518 38.7863 48.1756 38.9692 48.1732 39.969C48.1732 40.9523 48.1471 41.1565 47.9476 41.7123C47.6702 42.5272 47.2057 43.2658 46.5915 43.8688C45.4158 45.0658 43.9077 45.726 41.7275 46.0015C41.3475 46.049 40.2455 46.1298 39.2741 46.1797C36.8278 46.3079 35.22 46.5692 33.7736 47.0774C33.6432 47.1359 33.5031 47.1697 33.3603 47.1772C33.3033 47.1178 34.2866 46.5312 35.1012 46.1393C36.2483 45.5859 37.3883 45.2843 39.9462 44.8592C41.2097 44.6478 42.516 44.3937 42.8461 44.2915C45.9763 43.332 47.5866 40.8573 47.0712 37.7912Z" fill="white"/>
<path d="M50.0169 43.0256C49.1619 41.1898 48.9672 39.4156 49.435 37.7626C49.4849 37.5869 49.5657 37.442 49.6132 37.442C49.7739 37.5002 49.9252 37.5818 50.062 37.6843C50.4563 37.9503 51.2448 38.3968 53.3467 39.5415C55.971 40.9736 57.4673 42.0828 58.4862 43.3463C59.3768 44.4554 59.9278 45.7189 60.1938 47.2579C60.3434 48.1295 60.2555 50.2266 60.0323 51.1054C59.3269 53.8746 57.6858 56.0501 55.3488 57.3184C55.1282 57.446 54.8998 57.5594 54.6648 57.658C54.6315 57.658 54.755 57.3421 54.9427 56.9526C55.7264 55.3091 55.819 53.7084 55.2229 51.9271C54.8595 50.837 54.1162 49.5046 52.6175 47.2579C50.8743 44.6454 50.4468 43.9471 50.0169 43.0256ZM25.8703 52.9318C28.2572 50.9178 31.2235 49.488 33.9287 49.0486C35.0924 48.8586 37.0352 48.9346 38.1134 49.2101C39.8424 49.6519 41.3909 50.6446 42.196 51.825C42.9798 52.9793 43.3194 53.9863 43.6685 56.2235C43.811 57.107 43.9607 57.9929 44.0058 58.1948C44.267 59.3538 44.7824 60.2824 45.4189 60.7479C46.4283 61.4865 48.1692 61.5316 49.8792 60.8666C50.0578 60.7846 50.2462 60.7256 50.4397 60.6909C50.5014 60.7526 49.6417 61.3298 49.0337 61.6338C48.3162 62.0177 47.5127 62.2122 46.699 62.199C45.1315 62.199 43.83 61.4034 42.7447 59.7765C42.5309 59.4559 42.0512 58.4988 41.6759 57.6461C40.5312 55.0336 39.9659 54.2356 38.6359 53.364C37.4745 52.604 35.9807 52.4686 34.8573 53.0196C33.38 53.744 32.9692 55.6321 34.026 56.8268C34.4464 57.3018 35.2302 57.7126 35.8714 57.791C36.1511 57.8281 36.4356 57.8047 36.7055 57.7223C36.9754 57.64 37.2245 57.5007 37.4359 57.3138C37.6473 57.1269 37.8161 56.8968 37.931 56.6391C38.0458 56.3813 38.104 56.1019 38.1015 55.8198C38.1015 55.0313 37.7975 54.5848 37.0375 54.2404C35.9997 53.7725 34.8834 54.3188 34.8882 55.2949C34.8905 55.7105 35.071 55.9718 35.489 56.1618C35.7574 56.2805 35.7622 56.2924 35.5437 56.2473C34.5913 56.0478 34.368 54.9006 35.1352 54.1383C36.0543 53.2215 37.9567 53.6253 38.6098 54.8745C38.8853 55.3994 38.9162 56.4468 38.6763 57.0785C38.1419 58.4916 36.5792 59.2326 34.995 58.8289C33.9168 58.5534 33.4774 58.2565 32.1783 56.917C29.9197 54.5895 29.0433 54.1383 25.7848 53.63L25.1602 53.5326L25.8727 52.9318H25.8703Z" fill="white"/>
<path fill-rule="evenodd" clip-rule="evenodd" d="M14.7148 7.95639L14.9428 8.23427C23.7493 19.0168 28.2998 24.6123 28.5896 25.0113C29.0646 25.6715 28.8865 26.2629 28.0695 26.7284C27.6158 26.9873 26.6801 27.2485 26.2146 27.2485C25.685 27.2485 25.0888 26.9944 24.6542 26.5835C24.3478 26.2914 23.1105 24.4436 20.2533 20.0095C18.9154 17.9138 17.56 15.8293 16.1873 13.7561C16.071 13.6469 16.0733 13.6493 20.0301 20.7291C22.5143 25.1751 23.3551 26.745 23.3551 26.9564C23.3551 27.3839 23.2363 27.6071 22.7091 28.1961C21.8303 29.177 21.4385 30.279 21.1535 32.559C20.8352 35.1169 19.9422 36.9219 17.4627 40.0118C16.014 41.8215 15.7765 42.154 15.4083 42.8831C14.9476 43.7999 14.8217 44.3153 14.7695 45.4743C14.7148 46.6998 14.8217 47.493 15.197 48.6639C15.5247 49.6899 15.8667 50.3691 16.7407 51.7229C17.496 52.8938 17.9306 53.763 17.9306 54.1026C17.9306 54.3734 17.9828 54.3734 19.1537 54.1098C21.9538 53.478 24.2267 52.3642 25.5068 51.0009C26.2977 50.1578 26.483 49.6923 26.4901 48.5356C26.4925 47.7804 26.4663 47.6213 26.2621 47.1866C25.9296 46.4789 25.324 45.8899 23.9892 44.9779C22.2388 43.7809 21.4931 42.8167 21.2865 41.4938C21.1155 40.4084 21.3126 39.6413 22.2816 37.613C23.2815 35.5135 23.5308 34.6205 23.6995 32.5044C23.8063 31.1364 23.956 30.5973 24.3502 30.165C24.7587 29.7138 25.1292 29.5594 26.1433 29.4216C27.7963 29.196 28.8485 28.7685 29.713 27.9729C30.4635 27.2794 30.777 26.612 30.8245 25.6098L30.8625 24.8498L30.4421 24.3605C29.8388 23.6575 24.849 18.1523 15.4701 7.84002L15.2183 7.56689L14.7148 7.95877V7.95639ZM18.7856 46.8636C18.9513 46.5703 19.0008 46.2254 18.9242 45.8972C18.8477 45.5691 18.6507 45.2817 18.3723 45.0919C17.8308 44.7309 16.9877 44.9019 16.9877 45.3722C16.9877 45.5146 17.0661 45.6191 17.2442 45.7118C17.5458 45.8661 17.5672 46.0419 17.3321 46.3958C17.0922 46.7568 17.1112 47.075 17.3867 47.2911C17.8285 47.6379 18.4531 47.4455 18.7856 46.8636ZM31.9051 29.8206C31.1285 30.0581 30.3756 30.8823 30.1405 31.7444C29.998 32.2693 30.0787 33.1931 30.2925 33.4781C30.6368 33.9389 30.9717 34.06 31.8742 34.0529C33.6412 34.041 35.1755 33.2834 35.356 32.3358C35.5032 31.5591 34.8263 30.4833 33.8977 30.0083C33.418 29.766 32.3991 29.6686 31.9051 29.8206ZM33.9713 31.4356C34.2445 31.0485 34.1233 30.6281 33.6626 30.3479C32.7791 29.8088 31.4443 30.2529 31.4443 31.0889C31.4443 31.5021 32.1402 31.9558 32.7767 31.9558C33.2042 31.9558 33.7837 31.7016 33.9713 31.4356Z" fill="white"/>
</g>
<defs>
<clipPath id="clip0_730_1018">
<rect width="76" height="76" fill="white"/>
</clipPath>
</defs>
</svg>