<svg xmlns="http://www.w3.org/2000/svg" width="100" height="100" viewBox="0 0 100 100" fill="none">
<path d="M79.2658 84.3961C76.6176 85.6888 73.609 86.0443 70.7325 85.4044C68.7748 84.9558 66.8678 84.3094 65.0408 83.4753L61.0075 81.8253C57.4941 80.7252 53.743 80.63 50.1783 81.5503H49.8116C46.2593 80.5386 42.483 80.6345 38.9866 81.8253C37.6116 82.2836 36.3241 82.9253 34.9491 83.4753C33.1158 84.3044 31.1866 85.0378 29.2616 85.4961C26.3848 86.1303 23.3781 85.775 20.7283 84.4878L20.3616 84.3044C20.27 84.3044 20.27 84.3044 20.27 84.3961C21.7419 85.9104 23.5396 87.0694 25.5265 87.7849C27.5134 88.5004 29.6372 88.7536 31.7366 88.5253C34.3045 88.1765 36.7556 87.2335 38.895 85.7711L42.7491 83.2003C44.1874 82.2699 45.9333 81.9407 47.6116 82.2836C48.5283 82.3753 47.795 82.8336 47.7033 82.9253C45.3959 84.0412 43.2117 85.3958 41.1866 86.9669C39.8116 87.9711 37.3325 90.3586 37.3325 90.3586L39.1658 91.9169L41.1866 89.7169C43.6655 87.1423 46.5099 84.9465 49.6283 83.2003C49.7473 83.111 49.892 83.0628 50.0408 83.0628C50.1896 83.0628 50.3343 83.111 50.4533 83.2003C53.5717 84.9465 56.4161 87.1423 58.895 89.7169L60.9158 91.9169L62.7491 90.3586L58.895 86.9628C56.871 85.3934 54.6882 84.0402 52.3825 82.9253C52.1991 82.8336 51.5575 82.3753 52.4741 82.2836C54.1241 81.9169 55.8658 82.2836 57.3366 83.2003L61.1908 85.7711C63.3294 87.2314 65.7789 88.173 68.345 88.5211C69.9991 88.7086 71.7408 88.6169 73.3908 88.1544C75.8032 87.4359 78.0071 86.1467 79.8158 84.3961C79.8158 84.3961 79.7241 84.3044 79.6325 84.3044L79.2658 84.3961ZM88.2533 76.4128C87.0931 77.2976 85.7913 77.9795 84.4033 78.4294C82.4741 78.9836 80.3616 79.3461 78.345 79.3461C75.6866 79.4419 73.1158 79.6253 70.4575 79.9919C70.2741 79.9919 70.1825 79.9919 70.2741 79.9003C72.5658 78.9836 74.3991 77.1503 75.4116 74.9419L77.9783 69.7169V69.5294C77.795 69.6211 75.2283 71.8253 74.0325 72.9253L69.72 77.1461C67.7825 78.803 65.4924 79.9958 63.0241 80.6336H62.9325L62.8408 80.7253L67.795 81.9169C69.9176 82.543 72.1007 82.9424 74.3075 83.1086C77.0392 83.3781 79.7931 82.907 82.2799 81.745C84.7668 80.5829 86.8949 78.7727 88.4408 76.5044C88.4408 76.4128 88.345 76.4128 88.2533 76.4128ZM96.3283 64.1211C95.0236 65.6997 93.4766 67.0611 91.745 68.1544C90.2741 69.1628 88.7158 69.9878 87.0616 70.7253C84.9787 71.565 83.0313 72.7079 81.2825 74.1169L80.9158 74.3961C80.8241 74.3961 80.8241 74.3961 80.8241 74.3003C80.8241 74.2086 83.5741 71.4586 84.4033 65.6753C84.495 63.5669 84.8616 61.5503 85.32 59.5294V59.3461C83.415 61.7078 81.9257 64.3765 80.9158 67.2378L79.2658 71.9169C78.62 74.0253 77.4325 75.9544 75.87 77.5128L75.6866 77.6961V77.7878C75.87 77.7878 76.0533 77.6961 76.2366 77.6961L81.5575 76.5961C84.4816 76.1247 87.2504 74.9604 89.6325 73.2003C92.078 71.4352 94.0607 69.1051 95.4116 66.4086C95.7783 65.6794 96.0533 64.9419 96.3283 64.2086C96.5116 64.0253 96.42 64.0253 96.3283 64.1169M99.8158 50.3544C98.9668 52.8675 97.518 55.1357 95.595 56.9628C93.4082 59.1016 91.3845 61.4011 89.5408 63.8419C89.5408 63.9336 89.3575 63.8419 89.4491 63.7503C90.1843 61.2203 90.3718 58.5626 89.9991 55.9544C89.6325 53.7503 88.7158 51.3669 88.4408 48.7044L88.345 48.6128C88.345 48.7044 88.2533 48.7961 88.2533 48.8878C87.7027 50.6183 87.334 52.4016 87.1533 54.2086C87.0616 56.4128 87.4283 59.2544 87.245 61.4586C87.0616 64.0253 86.8783 66.6878 85.6866 68.9794V69.1628L91.1908 65.7711C93.457 64.3282 95.42 62.4571 96.97 60.2628C98.965 57.4488 100.025 54.0788 99.9991 50.6294V50.2628C99.9075 50.2628 99.8158 50.3544 99.8158 50.3544ZM93.9408 51.8253C94.0366 51.8253 94.0366 51.8253 93.9408 51.8253C93.9408 51.0878 93.9408 50.3544 93.8533 49.6211C93.67 47.0544 92.1075 44.9419 90.7325 42.7419C89.7983 41.3372 88.9696 39.8651 88.2533 38.3378C88.2533 38.3378 88.1616 38.2461 88.07 38.2461C88.07 38.4294 88.07 39.2544 88.1616 39.7128C88.62 43.3794 89.5366 47.0544 90.9158 50.5378C91.7408 52.7419 92.0158 55.0378 91.8325 57.3294C91.8325 57.5128 91.8325 57.5128 91.9241 57.6044C92.7491 56.4128 94.4033 54.7586 95.4116 53.4753C96.42 52.1919 101.924 45.9503 99.2658 37.3294C99.1741 36.9586 98.9908 36.5919 98.8075 36.2253L98.7158 36.3169C98.7158 42.5586 95.6866 45.2169 94.495 49.4419C94.2643 50.2247 94.0806 51.0206 93.945 51.8253M94.0366 38.9794L93.4866 37.5128L93.12 36.6836C92.1973 35.013 90.9116 33.5706 89.3575 32.4628C88.0918 31.3993 86.9798 30.1653 86.0533 28.7961H85.7783C85.87 29.0711 86.695 31.8211 87.245 33.1086C88.1616 34.8503 89.2658 36.5919 90.5491 38.0628L90.8241 38.4294C92.3825 40.5378 93.5741 42.8336 94.4033 45.3086C94.4033 45.4003 94.495 45.4003 94.495 45.4003L96.0533 40.6294C96.6033 38.9794 97.0616 37.2336 97.4283 35.4919C97.9825 31.3669 96.695 26.1336 94.3116 23.2003C94.3116 23.2003 94.22 23.2878 94.22 23.3836L94.3116 23.7503L94.495 24.3003C94.9533 26.5003 95.045 28.8836 94.5866 31.0919C94.22 32.8336 94.1283 34.6669 94.1283 36.5003C94.1283 36.7753 94.3116 39.0711 94.3116 39.1628C94.3116 39.2544 94.22 39.1628 94.1283 39.1628M86.695 15.9503C87.4283 16.6836 88.07 17.5086 88.4408 18.5169C89.0825 20.0794 89.2658 22.3711 89.7241 24.1169L90.5491 27.1419C90.5491 27.2336 90.4575 27.3253 90.3658 27.2336C88.9745 25.5717 87.2948 24.1743 85.4075 23.1086C84.1283 22.3711 83.1158 21.3628 82.1991 20.2628L81.7408 19.6211C81.7408 19.6211 81.6491 19.5294 81.5575 19.6211V19.8961C82.0158 21.9128 82.9325 23.8419 84.4033 25.3961C85.595 26.5003 86.8783 27.5086 88.07 28.5211C89.6505 29.8722 91.123 31.3447 92.4741 32.9253C92.4741 32.9253 92.5658 33.0169 92.5658 32.9253V31.4544L92.6575 27.0503V25.5836C92.6575 24.1169 92.3825 22.5544 91.8325 21.1794C90.9158 18.8878 89.1741 17.0544 87.0616 15.9503C86.97 15.8586 86.7866 15.8586 86.6033 15.7669C86.6033 15.7669 86.6033 15.8586 86.695 15.9503ZM77.2491 11.6378C78.5325 12.8294 79.6366 14.2086 80.645 15.6753C81.5616 17.1419 82.57 18.4253 83.8533 19.6211C84.6825 20.4461 87.1575 22.3711 87.7991 22.9211C87.7075 22.1878 86.5158 16.9628 83.3033 14.3919C81.4459 12.9025 79.286 11.8361 76.9741 11.2669V11.4544L77.2491 11.6378ZM25.8658 83.1086C28.0139 82.9426 30.1376 82.543 32.1991 81.9169L37.1491 80.7253H37.2408C37.2408 80.7253 37.2408 80.6336 37.1491 80.6336H37.0575C34.5673 79.9778 32.2498 78.7877 30.2658 77.1461L25.9575 73.0211L22.0116 69.6211V69.8086C22.3783 70.3586 23.7575 73.3836 24.5825 75.0378C25.5908 77.3294 27.4241 79.0753 29.72 79.9919C29.8116 80.0836 29.72 80.0836 29.5366 80.0836C26.9194 79.7294 24.2851 79.5152 21.645 79.4419C19.6283 79.4419 17.52 79.0753 15.5908 78.5253C14.2011 78.0743 12.8979 77.391 11.7366 76.5044H11.5533C13.3838 79.0833 15.937 81.0623 18.8908 82.1919C21.1435 82.9065 23.5049 83.2169 25.8658 83.1086ZM23.7575 77.6961C23.9408 77.6961 24.0325 77.7878 24.3075 77.7878V77.6961L24.1241 77.5128C22.583 75.9287 21.4219 74.0153 20.7283 71.9169L19.0783 67.2378C18.0684 64.3765 16.5791 61.7078 14.6741 59.3461V59.5294C15.2241 61.5503 15.4991 63.5711 15.6825 65.6794C16.5075 71.3669 19.2616 74.1169 19.2616 74.2086C19.2616 74.3003 19.2616 74.3961 19.17 74.3003L18.7991 74.0253C17.0503 72.6163 15.1029 71.4734 13.02 70.6336C11.3842 69.923 9.81779 69.0624 8.34079 68.0628C6.60885 66.9681 5.0618 65.6053 3.75746 64.0253H3.65746C3.93246 64.7586 4.20746 65.4961 4.57413 66.2294C5.94913 68.8878 7.96996 71.2711 10.4491 73.0211C12.8325 74.8544 15.5866 76.0461 18.52 76.4128C20.2658 76.8711 22.0116 77.3294 23.7575 77.6961ZM8.97829 65.7711L14.4866 69.1628C14.4866 69.1628 14.5783 69.0711 14.5783 68.9794C13.3825 66.5961 13.2033 64.0253 13.0158 61.4586C12.8325 59.1669 13.1991 56.4128 13.1075 54.2086C12.9269 52.3716 12.5583 50.5579 12.0075 48.7961C12.0075 48.7044 11.9158 48.6128 11.9158 48.5211L11.8241 48.6128C11.6408 51.2753 10.6325 53.6586 10.2658 55.8628C9.89977 58.4712 10.0872 61.1274 10.8158 63.6586C10.9075 63.7503 10.7241 63.8419 10.7241 63.7503C8.9025 61.2916 6.8758 58.9917 4.66579 56.8753C2.74952 55.0796 1.30429 52.8403 0.457458 50.3544C0.457458 50.3544 0.361625 50.2628 0.269958 50.2628C0.178291 50.2628 0.269958 50.4461 0.269958 50.6294C0.269958 54.0253 1.28246 57.4211 3.29913 60.2628C4.76579 62.3753 6.69496 64.3044 8.98663 65.7711M7.97829 57.6961C8.06996 57.6044 8.06996 57.6044 8.06996 57.4211C7.88663 55.1294 8.16163 52.7419 9.07829 50.6294C10.3658 47.1461 11.2825 43.5669 11.8325 39.8044C11.8325 39.3461 11.9241 38.5211 11.9241 38.3378C11.8325 38.3378 11.8325 38.3378 11.8325 38.4294C11.1161 39.9568 10.2875 41.4289 9.35329 42.8336C7.88663 44.8503 6.41996 47.0544 6.23663 49.6253C6.14504 50.3557 6.14504 51.0948 6.23663 51.8253C6.23663 51.8253 6.23663 51.9169 6.14496 51.9169V51.8253L5.50329 49.6211C4.20746 45.4003 1.27829 42.7419 1.27829 36.5003L1.18662 36.4086C1.00329 36.7753 0.911625 37.1419 0.728291 37.5128C-1.93421 46.1378 3.47829 52.3753 4.57829 53.6586C5.67829 54.9419 7.15329 56.5044 7.97829 57.6961ZM4.12413 40.5378L5.68663 45.3086C5.68663 45.3086 5.77829 45.3086 5.77829 45.2169C6.60329 42.7419 7.88663 40.4461 9.35329 38.3378L9.62829 37.9711C10.9158 36.4086 12.0158 34.7586 12.9325 33.0128C13.4825 31.7294 14.3075 28.9794 14.4033 28.7044H14.1241C13.2075 30.0794 12.1075 31.2711 10.8241 32.3711C9.219 33.4865 7.89872 34.9638 6.96996 36.6836C6.87829 36.9586 6.69496 37.2336 6.60329 37.5128L6.05329 39.0711C6.05329 39.0711 5.96163 39.2544 5.96163 39.0711C5.96163 38.8878 6.14496 36.7794 6.14496 36.4086C6.14496 34.5753 5.96163 32.7419 5.59496 30.9961C5.16557 28.7493 5.19676 26.4388 5.68663 24.2044C5.68663 24.0253 5.77829 23.8419 5.86996 23.6586C5.86996 23.5669 5.96163 23.3836 5.96163 23.2878C5.96163 23.1919 5.96163 23.1961 5.86996 23.1044C3.47829 26.0419 2.10329 31.3628 2.65329 35.4003C3.11163 37.1419 3.57413 38.8878 4.12413 40.5378ZM7.42413 27.1419L7.51579 31.5461V32.9211H7.60746C8.89079 31.2711 10.3575 29.8044 11.92 28.4294L15.5866 25.3044C17.0117 23.7597 17.9947 21.86 18.4325 19.8044V19.5294H18.3408L17.8825 20.1711C17.0267 21.3015 15.9702 22.2648 14.7658 23.0128C12.5616 24.3878 11.095 25.4003 9.80746 27.1419C9.71996 27.2336 9.62413 27.2336 9.71996 27.0503L10.545 24.0253C11.0033 22.2794 11.1866 19.9836 11.8283 18.4253C12.195 17.5086 12.8366 16.5919 13.57 15.8586V15.6753C13.3866 15.6753 13.295 15.7669 13.1116 15.8586C10.82 17.0503 9.16579 18.9794 8.24913 21.1794C7.69913 22.5544 7.33246 24.0253 7.42413 25.5836V27.1419ZM12.2866 22.8336L16.3241 19.5336C17.5158 18.3378 18.6158 17.0544 19.5325 15.5878C20.4843 14.1002 21.6258 12.7429 22.9283 11.5503L23.2033 11.2753V11.0836C20.8779 11.6127 18.7096 12.6818 16.8741 14.2044C13.4783 16.8628 12.3783 22.0919 12.2908 22.8294M49.17 51.2711C49.445 50.9003 48.8033 50.6253 48.62 51.2711C48.4366 51.9128 48.895 51.7294 49.17 51.2711ZM56.145 35.1211C55.8658 35.0294 54.8575 36.2211 55.0408 36.4044C55.5226 36.0894 55.9054 35.6445 56.145 35.1211ZM56.3283 34.9378C56.5116 35.0294 57.1533 34.6628 57.0616 34.5711C56.97 34.4794 56.145 34.1128 56.145 34.2961C56.145 34.6628 56.2366 34.8461 56.3283 34.9378ZM68.7116 46.3128C69.0783 46.2211 68.9866 45.6711 68.7116 45.6711C68.4366 45.6711 68.07 46.1294 68.1616 46.1294C68.2533 46.1294 68.5283 46.4044 68.7116 46.3128ZM64.2158 34.1128C63.9408 34.1128 63.8491 34.3878 64.1241 34.5711C64.3991 34.6628 64.5825 34.5711 64.7658 34.4794C64.8725 34.4316 64.9636 34.3546 65.0284 34.2573C65.0933 34.16 65.1294 34.0463 65.1325 33.9294C65.1325 33.6544 64.7658 33.2878 64.9491 33.1044C65.1325 32.9211 65.4075 33.1961 65.595 33.1044C65.7825 33.0128 65.87 32.8294 65.87 32.6461C65.87 32.4586 65.7783 31.9086 65.4116 31.9086C65.045 31.9086 64.6741 32.6461 64.6741 32.6461C64.6288 32.747 64.6054 32.8563 64.6054 32.9669C64.6054 33.0775 64.6288 33.1869 64.6741 33.2878C64.7658 33.6544 64.6741 34.1128 64.2158 34.1128ZM70.2741 34.2044C70.2741 34.3878 70.7325 35.5794 70.8241 35.8544C70.9158 36.1294 71.0075 37.1378 71.1908 37.0461C71.3741 36.9544 71.3741 36.4044 71.2825 36.1294C71.1836 35.4761 71.0303 34.8322 70.8241 34.2044C70.7325 33.8378 70.0908 32.4586 69.9075 32.5503C69.72 32.6461 70.1825 33.4669 70.2741 33.8378C70.3658 34.2044 70.1825 34.0211 70.2741 34.2044ZM67.0616 18.6044C67.3366 18.6961 67.3366 18.1461 66.8783 17.7794C66.42 17.4128 65.6866 17.5961 65.87 17.7794C66.2366 18.0544 66.6033 18.4211 67.0616 18.6044ZM53.2991 14.6628C52.6575 14.2961 53.2075 13.7461 52.7491 13.3753C52.1991 13.1919 51.6491 13.2836 51.2783 13.6503C50.82 14.2044 51.8325 14.0169 52.1075 14.2044C52.3825 14.3878 53.2991 15.0294 53.3908 14.9378C53.4825 14.8461 53.3908 14.6628 53.2991 14.6628ZM56.9658 12.8294C56.145 12.4586 53.1158 12.4586 53.2075 13.2878C53.2991 14.1169 54.9491 13.2878 55.4075 13.2878C55.8658 13.2878 57.6991 13.1919 56.97 12.8294M48.62 48.2419C48.4366 48.1503 48.1616 48.3336 48.07 48.1503C47.9783 47.9669 47.795 48.0586 47.795 48.1503C47.795 48.2419 47.7033 48.4253 47.8866 48.6086C47.9883 48.6971 48.1185 48.7459 48.2533 48.7459C48.3881 48.7459 48.5183 48.6971 48.62 48.6086C48.6642 48.5578 48.6886 48.4927 48.6886 48.4253C48.6886 48.3579 48.6642 48.2928 48.62 48.2419ZM46.8783 42.0961C47.1533 42.0961 47.1533 41.9128 47.245 41.9128C47.3366 41.9128 47.245 42.0961 47.52 42.0961C47.795 42.0961 48.07 41.4503 47.245 41.4503C46.5991 41.4503 46.6908 42.0961 46.8783 42.0961ZM47.9783 42.8294C47.52 42.7378 47.6116 43.0128 47.245 43.0128C46.6908 43.1044 47.1533 42.6461 46.97 42.4628C46.8783 42.3711 46.5991 42.8294 46.5116 43.1044C46.5116 43.2878 46.5116 43.6544 46.6908 43.7461L48.4366 43.9294C48.8033 43.9294 48.4366 42.9211 47.9783 42.8294ZM42.2908 48.7919C42.4741 48.7919 42.5658 48.2419 42.4741 47.9669C42.3825 47.6919 41.8283 47.8753 41.8283 48.0586C41.8283 48.2419 42.2033 48.7919 42.2908 48.7919ZM34.9491 48.7919C34.9491 48.6086 34.9491 47.8753 34.7658 47.6919C34.5825 47.5086 34.5825 47.7836 34.4908 47.7836C34.3991 47.7836 34.3991 47.4169 34.3075 47.4169C34.2158 47.4169 34.3075 47.9669 34.4908 48.3336C34.6741 48.7003 34.9491 49.2503 34.9491 48.7919ZM34.7658 47.1419C34.9491 46.5919 35.0408 46.0378 35.0408 45.4878C35.0408 45.0294 34.7658 44.6628 34.6741 44.6628C34.5825 44.6628 34.6741 44.9378 34.7658 45.3961C34.7658 45.8544 34.5825 46.3128 34.4908 46.7711C34.4908 46.8669 34.6741 47.3253 34.7658 47.1419ZM25.4075 67.6919C39.0741 81.3628 61.0991 81.3628 74.77 67.6919C88.4408 54.0211 88.4366 32.0003 74.77 18.3294C61.1033 4.65861 39.0783 4.66278 25.4075 18.3294C11.7366 31.9961 11.7366 54.1128 25.4075 67.6919ZM16.6908 43.7503H22.0116C22.1033 46.5003 22.5616 49.1669 23.3866 51.7336C23.0959 51.6503 22.8183 51.5269 22.5616 51.3669C22.195 51.1836 21.92 51.4586 21.8283 51.4586C21.4616 51.4586 21.0033 51.1836 21.0033 51.4586C21.0033 51.7336 21.37 51.5503 21.37 51.7336C21.37 51.9169 20.4533 51.9169 20.3616 51.5503C20.27 51.1836 20.0866 50.8128 19.995 51.2753C19.9033 51.7378 19.5366 51.6419 19.3533 51.7336C19.2616 51.8253 19.17 52.0086 19.17 52.1919C19.17 52.3753 18.7116 52.2836 18.7116 52.5586C18.7116 52.8336 18.9866 52.9253 19.0783 53.2003C19.17 53.4753 19.445 53.6586 19.2616 53.7503C19.0783 53.8419 19.17 53.6586 18.9866 53.7503C18.8033 53.8419 19.8116 56.5961 19.995 56.5003C20.1783 56.4044 19.72 55.5836 19.72 55.2169C19.72 54.8503 19.8116 54.7586 20.0866 54.5753C20.3616 54.3919 21.095 55.6753 21.37 55.4919C21.645 55.3086 21.2783 55.1253 21.5533 55.0336C21.8283 54.9419 22.6533 56.2294 22.9283 55.8628C23.1116 55.5836 23.295 56.0461 23.295 56.1378C23.5741 56.5961 24.0325 56.5961 24.3075 57.1461C24.5825 57.6961 25.2241 58.7044 25.6825 58.7044C26.1408 58.7044 25.8658 58.2461 26.0491 58.2461C26.2325 58.2461 26.4158 58.8878 26.6908 59.2544C26.8849 59.537 27.1803 59.734 27.5158 59.8044C28.1575 60.6336 28.8908 61.4586 29.6283 62.2836L25.8658 66.0461C20.0381 60.0811 16.7494 52.0893 16.6908 43.7503ZM47.0616 36.1336L46.6908 36.3169C46.186 36.5464 45.7217 36.8559 45.3158 37.2336L41.5533 33.4753C43.7575 31.5461 46.5116 30.3544 49.3533 30.2628V35.5836C48.6939 35.649 48.0464 35.8032 47.4283 36.0419C47.6116 35.6753 47.9783 35.3086 47.9783 35.3086C47.9783 35.3086 47.3366 35.6753 47.0616 36.1336ZM44.2158 44.8503V45.0336C44.2158 44.8503 44.1241 44.7586 44.0325 44.5753C43.9408 44.4836 43.8491 44.3919 43.7575 44.3919H43.2991L43.1158 44.4836H41.8283C41.645 44.4836 41.5533 44.4836 41.5533 44.3919C41.4616 44.0253 42.0116 44.3003 42.3825 43.2003C42.4741 43.1086 42.4741 42.9253 42.5658 42.8336L42.7491 42.5586L42.8408 42.4669C43.0241 42.2836 43.2075 42.2836 43.3908 42.2836H43.5741L43.7575 42.4669L44.0325 43.0169C44.1241 43.1086 44.2158 43.1086 44.2158 43.2003C44.3537 43.2689 44.478 43.3621 44.5825 43.4753L44.6741 43.5669V43.6586C44.7658 43.7503 44.7658 43.7503 44.8575 43.7503H45.2241C45.4075 43.6586 45.4075 43.7503 45.4991 43.7503V43.8419C45.4991 43.9336 45.4991 43.9336 45.4075 44.0253C45.4075 44.1169 45.3158 44.1169 45.3158 44.2086C45.2241 44.3003 45.1325 44.3919 45.0408 44.3919C44.8575 44.3919 44.6741 44.3003 44.5825 44.3003C44.4908 44.3003 44.3991 44.3003 44.3991 44.3919V44.8503M34.3075 53.6586C34.0466 53.1489 33.9203 52.5809 33.9408 52.0086C33.9304 51.4562 33.7721 50.9166 33.4825 50.4461C33.3908 50.0794 33.2991 49.7128 33.2991 49.3461C33.2991 48.7044 32.745 48.8878 32.745 48.7044C32.745 48.5211 33.2033 48.7044 33.2033 48.5211C33.2033 48.3378 32.6533 47.6044 32.195 47.4211C31.7366 47.2378 31.92 46.9628 31.92 46.6878C31.92 46.4128 31.92 46.1336 31.7366 45.9503C31.645 45.5836 31.7366 44.9419 32.195 44.9419C32.3783 44.9419 32.6533 45.1253 32.9325 44.9419C33.2075 44.7586 33.0241 44.2086 33.0241 43.7503H35.5908C35.5908 44.1169 35.6825 44.5753 35.6825 44.9419C35.4991 45.0336 35.4075 45.2169 35.4991 45.3086C35.5908 45.4003 35.6825 45.4919 35.7741 45.4003C36.2325 48.0628 37.4241 50.5378 39.2616 52.5586L35.4991 56.3211C35.2241 56.0461 34.9491 55.6753 34.6741 55.3086V55.0336C34.6741 54.3919 34.2158 54.0253 34.0325 53.4753M30.7283 47.2378C30.4796 46.0899 30.3263 44.9234 30.27 43.7503H32.47C32.2866 44.0253 31.8283 44.3003 31.7366 44.5753C31.645 44.8503 31.095 45.7669 31.4616 46.1336C32.2866 47.0503 31.2783 47.4211 30.7283 47.2378ZM31.1866 60.8169L30.7283 61.2753L30.0866 60.6336C30.4533 60.4503 30.82 60.5419 31.1866 60.8169ZM36.8741 37.2336C36.7825 37.2336 36.7825 37.3294 36.6908 37.3294C36.4158 37.6044 35.6825 37.5128 35.7741 37.7878C35.8658 38.0628 37.795 37.1419 37.795 37.3294C37.795 37.5169 36.9658 37.7878 36.42 38.0628C35.8741 38.3378 35.6825 38.7961 34.7658 38.7961C34.3075 38.7961 34.1241 39.1628 33.9408 39.4378C33.6931 39.7837 33.4783 40.1519 33.2991 40.5378C33.3102 41.1105 33.1845 41.6776 32.9325 42.1919H30.2658C30.4497 37.482 32.3049 32.9915 35.4991 29.5253L39.2616 33.2919C38.3465 34.5298 37.5473 35.8492 36.8741 37.2336ZM40.3616 34.4836L43.6658 37.7878H43.2991C42.9325 37.7878 42.9325 37.5128 42.6575 37.5128C42.1033 37.6044 42.0116 37.7878 41.92 37.6961C41.5141 37.3184 41.0497 37.0089 40.545 36.7794C39.9446 36.5768 39.2899 36.608 38.7116 36.8669C38.62 36.8669 38.62 36.9586 38.5283 36.9586C39.17 36.1336 39.8116 35.3086 40.3616 34.4836ZM35.7783 41.1794C35.7783 41.5461 35.6825 41.9169 35.6825 42.2836H33.7575C33.6658 42.0086 33.7575 41.7294 33.9408 41.4544C34.1241 41.0878 34.5825 40.9044 35.0408 40.9961C35.2923 41.0242 35.5431 41.0858 35.7783 41.1794ZM37.4241 45.4919L37.6116 45.7669C37.795 45.9503 37.9783 46.1336 38.1616 46.0419C38.345 45.9503 38.8033 46.0419 38.895 46.0419C39.17 46.1336 39.3533 46.3169 39.5366 46.5003C39.72 46.7794 40.0866 46.5961 40.3616 46.7794C40.6366 46.9628 40.9116 47.1461 40.545 47.3294C40.1783 47.5128 40.9116 47.8794 41.0033 47.8794C41.095 47.8794 41.1866 47.6961 41.1866 47.4211C41.1866 47.3294 41.37 46.9628 41.645 47.0544C41.92 47.1461 42.7491 48.1544 43.02 47.7878C43.2991 47.4211 43.1158 46.9628 43.2075 46.7794C43.2075 46.6878 43.2991 46.5961 43.3908 46.5961C43.6658 47.0544 43.8491 47.4211 44.2158 47.7878L40.4533 51.5503C38.8602 49.8794 37.805 47.769 37.4241 45.4919ZM40.3616 32.3711L36.695 28.6128C40.1596 25.4219 44.6468 23.5683 49.3533 23.3836V28.7044C46.0491 28.7961 42.9325 30.0794 40.3616 32.3711ZM35.5908 27.5086L31.8325 23.7503C36.5873 19.2661 42.8243 16.6859 49.3575 16.5003V21.8211C44.2318 21.9843 39.3405 24.0058 35.595 27.5086M34.495 28.5211C31.0076 32.2765 28.9887 37.1619 28.8075 42.2836H23.4783C23.6639 35.7505 26.2441 29.5134 30.7283 24.7586L34.4908 28.5211H34.495ZM28.8033 43.7503C28.8033 44.7586 28.895 45.6753 29.0783 46.6878C28.9866 46.6878 28.9866 46.4086 28.7116 46.5003C28.4366 46.5919 27.4241 48.3336 26.9658 49.0711C26.5991 49.7128 27.1491 51.0878 26.5991 51.5503C26.0676 51.7305 25.5104 51.8233 24.9491 51.8253H24.8575C23.9626 49.2864 23.4665 46.6243 23.3866 43.9336L28.8033 43.7503ZM49.2616 76.4128C40.9291 76.242 32.968 72.9326 26.97 67.1461L30.7283 63.3836C35.7468 68.1465 42.3457 70.8911 49.2616 71.0919V76.4128ZM49.2616 69.6211C42.7285 69.4355 36.4915 66.8553 31.7366 62.3711L32.3783 61.7336C32.5181 61.8453 32.6723 61.9378 32.8366 62.0086C33.2342 62.209 33.6865 62.2734 34.1241 62.1919C34.4908 62.1003 35.2241 61.4586 35.6825 61.4586C36.1408 61.4586 36.8741 61.6419 37.3325 61.3669C37.7908 61.0919 37.0575 60.1711 36.7825 59.7128C36.6908 59.6211 36.6908 59.5294 36.5991 59.4378C40.2005 62.4775 44.7335 64.1934 49.445 64.3003L49.2616 69.6211ZM49.2616 62.7419C44.5537 62.5582 40.0649 60.7045 36.5991 57.5128L40.3616 53.7503C42.1075 55.3086 44.2158 56.5003 46.5991 57.0544C45.7741 57.4211 45.4075 57.9711 45.4991 58.4294C45.5908 58.8878 44.9491 59.1628 44.9491 59.7128C44.9491 60.2628 45.6825 60.6294 45.7741 61.1836C45.8658 61.4586 46.5075 61.9169 47.0616 62.2836C47.795 62.4669 48.5283 62.5586 49.17 62.4669L49.2616 62.7419ZM49.0783 55.4003C48.8033 55.2169 48.62 55.5836 48.2533 55.7669C45.737 55.4021 43.3791 54.32 41.4616 52.6503L45.2241 48.8878C46.4158 49.8044 47.795 50.4461 49.2616 50.5378C49.2616 50.7211 49.445 50.9044 49.445 51.2753C49.445 51.6461 49.17 51.8253 49.2616 52.0086C49.3533 52.1919 50.1783 52.0086 50.27 51.7336C50.3616 51.4586 49.995 51.2753 49.9033 50.9961C49.8116 50.8128 49.8116 50.7211 49.72 50.5378H49.9991C50.2741 50.5378 50.5491 50.5378 50.8241 50.4461C50.8718 50.4432 50.9167 50.4229 50.9505 50.3891C50.9842 50.3554 51.0045 50.3104 51.0075 50.2628C51.0075 50.1711 51.0991 50.0794 51.0991 49.9878C51.0991 49.8961 51.1908 49.8961 51.1908 49.8044L51.2825 49.8961C51.3741 50.0794 51.5616 50.6294 51.7408 50.5378C51.92 50.4461 52.02 49.6211 51.9283 49.4378C51.8391 49.3188 51.7908 49.174 51.7908 49.0253C51.7908 48.8765 51.8391 48.7318 51.9283 48.6128C51.9283 48.5211 52.02 47.9711 52.2033 48.0628C52.3866 48.1544 52.2033 48.6128 52.2033 48.7961C52.2033 49.0711 52.3866 49.4378 52.6616 49.2544C52.845 49.1628 53.0283 48.8878 53.2116 48.9794C53.395 49.0711 52.7533 49.2544 52.6616 49.4378C52.57 49.6211 52.9366 49.7128 52.845 49.8044C52.7533 49.8961 52.6616 49.8044 52.57 49.8961C52.4783 49.9878 52.7533 50.5378 52.57 50.6294C52.3866 50.7211 51.745 50.9044 51.5616 50.9961C51.3783 51.0878 51.1908 50.9044 51.2825 50.8128C51.3741 50.7211 51.2825 50.3544 51.0991 50.3544C50.9158 50.3544 50.9158 50.4461 50.9158 50.6294C50.9158 50.8128 51.0991 51.0878 51.0991 51.1836C51.0991 51.2794 50.8241 51.3669 50.6408 51.4586C50.4575 51.7336 50.1825 52.0086 49.9075 52.1919C49.6325 52.3753 49.0825 52.3753 49.0825 52.5586C49.0825 52.7419 49.3575 52.7419 49.4491 52.8336C49.6325 53.1086 49.7241 53.4753 49.3575 53.6586C48.9908 53.8419 48.5325 53.3836 48.3491 53.4753C48.1658 53.5669 48.0741 54.0253 47.9825 54.5753C47.8908 55.1253 48.9908 55.3086 49.5408 55.0336C49.9075 54.8503 49.8158 54.3003 50.1825 54.1169C50.5491 53.9336 50.4575 53.5669 50.8241 53.6586C51.1908 53.7503 51.0991 53.3836 51.47 53.3836C51.8408 53.3836 51.8366 53.6586 52.295 53.7503C53.0283 53.9336 53.0283 54.4836 53.12 54.2086C53.2116 53.9336 53.3033 53.7503 52.7533 53.5669C52.2033 53.3836 51.9283 52.7419 52.3866 52.9253C52.9366 53.2003 53.395 53.2003 53.4866 53.4753C53.5783 53.7503 54.1283 53.6586 54.22 53.9336C54.3116 54.3919 54.6783 53.9336 54.4033 53.6586C54.1283 53.3836 54.22 53.2919 54.4033 53.1086C54.5866 52.9253 54.6783 53.2003 54.9533 52.8336C55.2283 52.4669 54.8616 52.5586 54.77 52.3753C54.6783 52.1919 54.77 51.1836 55.1366 51.3669C55.5033 51.5503 55.87 51.2753 55.6866 51.1836C55.5033 51.0878 55.7783 50.5378 55.87 50.5378C55.9616 50.5378 55.87 50.9044 55.9616 50.9961C56.0533 51.0878 56.9741 50.7211 57.0658 51.1836C57.1575 51.6461 56.4241 51.9169 56.2408 51.9169C55.87 51.9169 55.595 52.2836 55.3241 52.6503C55.045 53.0169 54.77 53.1086 54.9533 53.4753C55.1366 53.8419 55.5033 53.7503 55.87 53.5669C56.2366 53.3836 56.5158 53.1086 56.6991 53.0169C57.0658 52.8336 57.3408 53.9336 57.1575 54.1169C56.9741 54.3003 56.6075 54.3919 56.4241 54.5753C55.87 54.8503 55.32 55.1253 54.6783 55.1253C54.3116 55.2169 54.3116 55.3086 54.22 55.6753C54.1283 56.0461 52.4783 55.7669 52.1116 55.7669C51.745 55.7669 52.3866 54.9419 51.8366 55.0336L50.1825 55.3086C50.0908 55.3086 49.5366 55.7669 49.0783 55.4003ZM53.945 63.9336C54.4033 64.1169 54.8616 64.4836 55.1366 64.8503C55.4116 65.3086 55.5033 65.4961 55.32 65.9544C54.8616 66.7794 55.045 67.3294 55.9616 67.6044C56.5158 67.7878 56.6991 68.3378 57.0658 68.7044C55.0257 69.2404 52.9322 69.5478 50.8241 69.6211V64.3003C51.8366 64.2086 52.9366 64.1169 53.9491 63.9336M50.8241 62.8336V62.1919C52.02 62.0086 51.7408 62.7419 52.57 62.4669C52.6971 62.4256 52.8333 62.4209 52.963 62.4533C53.0926 62.4858 53.2106 62.554 53.3033 62.6503C52.4742 62.6657 51.6465 62.7269 50.8241 62.8336ZM50.8241 76.5044V71.0878C53.6043 71.0097 56.3572 70.5153 58.9908 69.6211C59.0825 69.7169 59.1741 69.7169 59.2658 69.7169C59.6303 69.6915 59.98 69.5629 60.2741 69.3461C61.1574 68.9988 61.991 68.5365 62.7533 67.9711C65.171 66.7416 67.3959 65.1652 69.3575 63.2919L73.12 67.0544C67.1575 72.9294 59.1741 76.2294 50.8283 76.5044M65.6908 28.5211L66.9741 27.2336C67.3082 27.6143 67.7599 27.8725 68.2575 27.9669C68.7158 28.0628 68.8991 28.2461 68.9908 28.7044C69.0825 29.1628 69.5408 29.3461 70.0033 29.4378C70.4658 29.5294 70.7366 30.0794 71.1033 30.0794C71.47 30.0794 72.6616 31.7294 73.12 32.2794C73.395 32.5544 73.7616 33.0169 74.0366 32.6503C74.3116 32.2794 74.3116 32.3711 74.495 32.2794C75.8934 35.4351 76.6728 38.8299 76.7908 42.2794H71.47C71.47 41.0878 71.2866 39.8961 71.0116 38.7044C71.1989 38.3355 71.2933 37.9265 71.2866 37.5128C71.2866 37.1419 70.92 36.9586 70.645 37.2336C70.4562 36.5424 70.2109 35.8679 69.9116 35.2169C69.8158 34.8503 69.7241 34.3919 69.6325 34.0253C69.6325 33.9336 69.4491 33.8419 69.2658 33.6586C69.0825 33.2919 68.9908 33.0169 68.8075 32.7419C69.0825 32.5544 69.1741 32.0961 68.8075 32.1878C68.2575 32.2794 68.6241 31.9128 68.4408 31.7294C68.2575 31.5461 68.2575 31.7294 68.1658 31.8211C67.4524 30.7227 66.6556 29.6807 65.7825 28.7044V28.6128C65.5991 28.6128 65.5991 28.5211 65.6908 28.5211ZM68.8991 59.6211C68.7158 59.2544 68.6241 58.7961 68.4408 58.4294C68.3491 58.0628 67.6158 58.0628 67.6158 58.2461C67.6158 58.6128 67.6158 58.9794 67.5241 59.3461V59.4378L65.5991 57.5128C69.0865 53.7574 71.1054 48.872 71.2866 43.7503H76.6075C76.4386 50.2599 73.8544 56.4739 69.3575 61.1836L69.0825 60.9086C69.1525 60.4708 69.0886 60.022 68.8991 59.6211ZM64.495 63.2919C64.77 62.8336 65.3241 62.0086 65.5991 61.5503C65.8741 61.0919 64.8616 60.4503 64.3116 60.2628C63.7616 60.0753 63.7616 59.8044 63.7616 59.3461C64.0366 59.1628 64.3116 58.8878 64.5866 58.6128L68.3491 62.3753C67.1074 63.5437 65.7553 64.5889 64.3116 65.4961C64.22 65.3128 64.8616 64.6669 65.045 64.3919C65.2283 64.1169 64.3116 63.7503 64.495 63.2919ZM66.7866 41.3628C66.3283 40.7211 66.9741 40.6294 67.6158 40.3544C67.9825 40.1711 68.4408 40.4461 68.4408 40.2628C68.4408 40.0794 68.6241 39.7128 68.8075 39.6211C68.9908 39.5294 69.2658 39.3461 69.3575 39.1628C69.3575 39.3461 69.4491 39.5294 69.4491 39.7128C69.2736 40.0202 69.179 40.3671 69.1741 40.7211C69.1741 40.9961 69.1741 41.3628 69.4491 40.7211C69.4491 40.6294 69.5408 40.6294 69.5408 40.5378C69.7241 41.1794 69.7241 41.7294 69.7241 42.2836H65.7825V42.1919C66.0575 41.7336 67.0658 41.8211 66.7908 41.3628M67.5241 33.8419C67.5241 33.8419 67.5241 33.9336 67.4325 33.9336C67.3408 34.0253 66.8825 33.2919 66.8825 33.8419C66.8825 34.3919 67.0658 34.5753 67.4325 34.6669C67.7991 34.7586 67.6158 34.9419 67.8908 35.0336C67.9825 35.0336 68.1658 35.1253 68.2575 35.2169C68.7158 36.2253 68.9908 37.2336 69.2658 38.3378C69.1279 38.4064 69.0036 38.4996 68.8991 38.6128C68.7158 38.7961 68.8075 39.1628 68.6241 39.4378C68.3491 39.8961 68.2575 40.1711 67.5241 39.9878C67.0658 39.8044 67.4325 39.2544 67.5241 38.7961C67.6158 38.3378 67.7991 38.4294 67.7991 38.1544C67.7991 37.8794 66.8825 36.8669 66.4241 37.2378C65.9658 37.6044 66.0575 37.9711 65.6908 38.3378C65.5075 38.5211 65.3241 38.5211 65.045 38.3378C64.7658 38.1544 64.6783 37.9711 64.77 37.7878C64.8616 37.6044 64.1283 36.7753 63.8533 36.4128C63.6787 36.1889 63.4566 36.0066 63.2029 35.879C62.9493 35.7515 62.6705 35.6819 62.3866 35.6753C61.8878 34.8232 61.3028 34.0245 60.6408 33.2919L64.4033 29.5294C65.6908 30.9044 66.695 32.2794 67.5241 33.8419ZM61.1908 36.4086L61.0116 36.6836C60.92 36.8669 60.4575 36.5003 60.3658 36.5919C60.2741 36.6836 61.0116 37.6044 60.2741 37.3294C59.5408 37.0503 59.9991 37.0503 59.9991 36.7753C59.9991 36.5003 59.3575 36.3169 59.7241 36.1336C60.0908 35.9503 59.7241 35.6753 60.0908 35.5836C60.4575 35.4919 60.3658 35.1253 59.9075 35.0336C59.4491 34.9419 59.5408 36.0419 59.2658 35.8586C58.9908 35.7669 58.7158 35.7669 58.4408 35.7669L59.7241 34.4836C59.865 34.5575 60.0241 34.5893 60.1825 34.5753C60.3658 35.3086 60.8283 35.8586 61.195 36.4086M59.7241 55.0336C60.2741 55.1253 60.92 55.2169 61.47 55.4003C61.8366 55.5836 62.1116 55.9544 62.3866 55.4919C62.9366 54.6669 63.3033 53.7503 63.4866 52.7419C63.67 51.3669 63.395 50.9086 63.2116 50.9086C63.0283 50.9086 62.6616 51.2753 62.295 51.2753C62.1116 51.2753 62.1116 51.6419 62.1116 51.9169C62.1116 52.1919 61.745 52.4669 61.6533 52.2836C61.5616 52.1003 61.3783 52.1919 61.47 52.3753C61.5616 52.5586 60.7366 52.4669 60.3658 52.2836C59.8158 52.0086 61.0116 52.0086 61.5616 51.5503C62.02 51.1836 62.4783 50.7211 62.9366 50.2628C63.2116 49.8044 63.2116 49.2544 63.67 48.8878C64.1283 48.5211 64.8616 48.6128 64.9533 48.0628C65.045 47.5128 65.1366 47.6044 65.4116 47.6961C65.6866 47.7878 68.2575 47.6044 68.2575 46.7794C68.2575 46.4086 67.7075 45.9503 67.1575 45.8628C66.7908 45.8628 66.6991 45.1253 66.5158 44.7586C66.3366 44.3728 66.1218 44.0045 65.8741 43.6586H69.7241C69.5404 48.3666 67.6867 52.8554 64.495 56.3211L64.4033 56.2294V55.8628C64.495 55.1253 63.945 53.9336 63.7616 54.1169C63.5783 54.3003 63.7616 54.3003 63.2116 55.1253C63.0283 55.4003 62.7533 55.8628 62.3866 55.8628C62.02 55.8628 62.02 55.6753 61.47 55.7669C60.984 55.859 60.4851 55.859 59.9991 55.7669C59.1242 55.4832 58.2916 55.0823 57.5241 54.5753C57.6158 54.4836 57.8908 54.6669 57.8908 54.3919C57.8908 54.1169 59.3575 54.9419 59.7241 55.0336ZM74.1283 66.1378L70.37 62.3753C75.1328 57.3567 77.8774 50.7579 78.0783 43.8419H83.4866C83.3068 52.1904 79.9617 60.1586 74.1283 66.1336M83.4866 42.2836H78.0741C77.99 38.3378 77.0518 34.4571 75.3241 30.9086L75.4158 30.8128C75.7825 30.4461 73.67 27.6919 73.3033 27.4169C72.9366 27.1419 72.57 26.6836 72.1116 26.2253C71.365 25.4969 70.6897 24.6989 70.095 23.8419L74.0366 19.8961C79.9346 25.8749 83.3166 33.887 83.4866 42.2836ZM50.8241 9.61694C59.1823 9.80434 67.168 13.1113 73.2116 18.8878L69.545 22.5544C69.3575 22.4628 69.1741 22.3711 69.2658 22.1878C69.4491 21.9128 68.9908 21.9128 68.8991 21.1794C68.689 20.44 68.1946 19.8138 67.5241 19.4378C67.0658 19.1628 66.7908 18.7961 66.3325 18.6086C65.8741 18.4253 64.9575 17.8753 64.4991 18.0586C64.204 18.1635 63.8953 18.2252 63.5825 18.2419C59.6806 16.1557 55.3396 15.0248 50.9158 14.9419L50.8241 9.61694ZM50.8241 16.5003C54.77 16.5919 58.5325 17.6003 62.1116 19.3461C62.2209 19.9468 62.4724 20.5125 62.845 20.9961C63.0283 21.4544 63.3033 21.8211 63.5783 22.2794C63.8533 22.5544 63.67 23.1044 63.7616 23.5669C63.7616 23.7503 63.945 23.9336 64.0366 24.1169V24.8503C64.0366 24.9419 64.4033 24.9419 64.6783 24.7586C64.9533 24.5753 65.1366 24.2086 65.5075 24.3003C65.8783 24.3919 66.3325 25.1253 66.6075 25.5836L64.8616 27.3253C64.6783 26.9586 64.495 26.5003 64.5866 26.5003C64.6783 26.5003 64.8616 26.5919 64.9533 26.5919C65.3241 26.5919 64.6783 26.3169 64.6783 26.2253C64.4033 25.9503 64.4033 25.5836 64.0366 25.3086C63.67 25.0336 63.12 25.2169 62.9366 24.8503C62.5765 24.1969 62.0755 23.6319 61.47 23.1961C61.3783 23.1961 62.2033 24.2086 61.9283 24.3919C61.6533 24.5753 60.6408 23.7503 60.5533 23.9336C60.4575 24.1169 61.6533 24.5753 62.02 24.9419C62.2033 25.1253 62.57 25.6753 62.9366 26.1336C59.4382 23.4857 55.2088 21.9799 50.8241 21.8211V16.5003ZM50.8241 23.2919C55.5335 23.4747 60.024 25.3284 63.4908 28.5211L59.7241 32.2794C57.2583 30.0846 54.1204 28.7918 50.8241 28.6128V23.2919ZM50.8241 30.1711C53.7143 30.3181 56.467 31.4504 58.6241 33.3794L58.4408 33.5669L58.2575 33.4753C57.7991 33.2919 56.8825 34.2086 57.0658 34.3003C57.2491 34.3919 57.6158 33.9336 57.7991 34.0253H57.8908L56.3325 35.6753C55.8741 35.8586 55.4158 36.2253 55.4158 36.5003V36.5919L54.8616 37.1419L54.5866 36.8669C54.1519 36.5051 53.6549 36.2255 53.12 36.0419C53.395 35.8586 53.4866 35.5836 53.5783 35.2169C53.5783 34.6669 53.395 34.8503 53.12 35.1253C52.845 35.4003 52.57 35.4919 52.3866 35.7669C51.917 35.587 51.4187 35.4938 50.9158 35.4919V30.1711H50.8241ZM50.1825 36.9628C50.2741 37.1419 50.1825 37.3294 50.0908 37.4211C49.9075 37.6044 49.3575 36.9628 49.2658 37.5128C49.0825 38.0628 49.6325 37.7878 49.6325 37.8794C49.9021 38.2278 50.2965 38.4578 50.7325 38.5211C51.0991 38.5211 51.6491 38.5211 51.6491 38.8878C51.6491 39.0711 52.1075 39.0711 52.2033 39.2544C52.2033 39.5294 52.4783 39.9878 52.6616 39.8961C52.845 39.8044 53.12 39.9878 53.2116 40.1711C53.3033 40.3544 53.2116 40.4461 53.12 40.6294C52.845 40.9044 53.395 40.8128 53.4866 41.3628C53.5783 41.9128 53.0283 41.5461 52.9366 41.9169C52.7533 42.1919 52.57 42.3753 52.3866 42.6503C52.295 42.7419 52.4783 42.9253 52.57 42.8336C52.6616 42.7419 52.845 42.4669 53.12 42.4669C53.395 42.4669 53.67 43.4753 53.945 43.5669C54.22 43.6586 54.1283 44.0253 54.22 44.1169C54.3116 44.2086 53.7616 44.1169 53.8533 44.3003C53.945 44.4836 54.495 44.5753 54.495 44.8503C54.4033 45.1253 54.22 45.4003 53.8533 45.4003C53.5783 45.4003 53.12 44.7586 53.12 44.9419C53.12 45.1253 53.3033 45.6753 53.5783 45.6753C53.8533 45.6753 54.495 45.4003 54.22 45.7669C53.945 46.1336 54.0366 46.6836 53.8533 46.6836C53.67 46.6836 53.5783 46.6836 53.7616 46.9628C53.8533 47.2378 53.7616 47.5128 53.5783 47.7878C53.395 47.9711 52.9366 47.7878 52.9366 47.6961C52.9366 47.6044 53.4866 47.6044 53.4866 47.3294C53.4866 47.0544 53.2116 46.9628 52.6616 47.1461C52.3866 47.2378 52.295 47.0544 52.1116 47.0544C51.9283 47.0544 51.3783 47.6961 51.3783 47.7878V48.2461C51.3844 48.5735 51.2867 48.8944 51.0991 49.1628C50.7325 49.2544 50.4575 49.2544 50.0908 49.2544C48.6241 49.2544 47.1575 48.6128 46.0533 47.6961C46.2825 47.5811 46.5344 47.5184 46.7908 47.5128C47.0658 47.6044 47.1575 47.4211 47.3408 47.3294C47.5241 47.2378 47.9825 47.5128 48.2575 47.3294C48.5325 47.1461 49.1741 45.9544 49.0825 45.6753C48.9908 45.3961 49.7241 44.9419 49.6325 44.8503C49.5408 44.7586 49.4491 44.9419 49.4491 44.8503C49.4491 44.7586 49.6325 44.7586 49.4491 44.3919C49.2658 44.0253 48.9908 44.2086 48.8075 44.2086C48.5325 44.0253 48.0741 43.9336 47.9825 44.0253C47.8908 44.1169 47.6158 43.8419 47.5241 43.9336C47.4325 43.9336 47.2491 44.0253 47.2491 44.2086C47.1575 44.3919 47.3408 44.5753 47.3408 44.7586C47.2491 45.1253 46.695 45.4003 46.695 45.6753C46.695 45.9503 46.42 45.7669 46.3283 45.8586C46.2366 45.9503 46.3283 46.1336 46.145 46.1336C45.9616 46.1336 45.6866 46.5919 45.5033 46.9628C45.2283 46.5961 44.9533 46.1336 44.6783 45.7669C44.8616 45.6753 45.045 45.5836 45.1366 45.6753C45.4116 45.8586 46.5116 43.9336 46.3283 43.3836C46.145 42.8336 45.87 43.2003 45.595 43.2919C45.32 43.3836 45.32 43.1086 45.4116 43.0169C45.5033 42.9253 46.695 42.9253 46.0533 42.5586C45.7783 42.3753 45.045 42.3753 45.1366 42.1003C45.2283 41.8253 45.595 42.1003 45.6866 42.1003C46.145 42.2836 46.42 41.3628 46.695 41.3628C47.1533 41.3628 46.9741 40.4461 46.5116 40.7211C46.0491 40.9961 45.87 40.9044 45.6866 41.1794C45.5033 41.4544 45.045 41.8211 45.045 41.4544C45.045 41.2711 46.0533 40.7211 46.2366 40.4461C46.4411 40.238 46.5975 39.9877 46.695 39.7128C46.7908 39.4378 48.07 39.2544 48.3491 39.0711C48.5325 38.8878 48.7158 38.6128 48.7158 38.3378C48.7158 38.0628 48.3491 38.1544 48.2575 37.9711C48.1658 37.7878 48.7158 37.9711 48.7158 37.6961C48.7158 37.4211 48.2575 37.6961 48.0741 37.5128C48.0741 37.4211 48.0741 37.4211 48.1658 37.3294C48.9908 37.0503 49.5408 36.9586 50.1825 36.9586H50.3658M49.3575 9.62111V14.9419C42.4415 15.1428 35.8427 17.8874 30.8241 22.6503L27.0616 18.8878C33.0608 13.1004 41.0235 9.79086 49.3575 9.62111ZM25.8658 19.9878L29.6283 23.7503C24.8654 28.7688 22.1209 35.3677 21.92 42.2836H16.5991C16.8528 33.9675 20.1502 26.0338 25.8658 19.9878Z" fill="#009EDB"/>
</svg>