<svg xmlns="http://www.w3.org/2000/svg" width="90" height="90" viewBox="0 0 90 90" fill="none">
<path d="M77.4295 10.0283L49.2656 30.9605L54.4634 18.6441L77.4295 10.0283Z" fill="#E2761B" stroke="#E2761B" stroke-width="0.803515" stroke-linecap="round" stroke-linejoin="round"/>
<path d="M12.5423 10.0283L40.4236 31.1865L35.4801 18.6441L12.5423 10.0283ZM67.3163 58.4181L59.8304 69.887L75.8474 74.2938L80.4519 58.6723L67.3163 58.4181ZM9.57617 58.6723L14.1524 74.2938L30.1694 69.887L22.6835 58.4181L9.57617 58.6723Z" fill="#E4761B" stroke="#E4761B" stroke-width="0.803515" stroke-linecap="round" stroke-linejoin="round"/>
<path d="M29.266 39.0395L24.8027 45.7909L40.7067 46.4971L40.1417 29.4067L29.266 39.0395ZM60.7067 39.0395L49.6897 29.209L49.3225 46.4971L65.1982 45.7909L60.7067 39.0395ZM30.17 69.887L39.718 65.2259L31.4694 58.7853L30.17 69.887ZM50.2547 65.2259L59.831 69.887L58.5033 58.7853L50.2547 65.2259Z" fill="#E4761B" stroke="#E4761B" stroke-width="0.803515" stroke-linecap="round" stroke-linejoin="round"/>
<path d="M59.8309 69.8871L50.2547 65.2261L51.0174 71.469L50.9326 74.0961L59.8309 69.8871ZM30.1699 69.8871L39.0682 74.0961L39.0117 71.469L39.7179 65.2261L30.1699 69.8871Z" fill="#E2761B" stroke="#E2761B" stroke-width="0.803515" stroke-linecap="round" stroke-linejoin="round"/>
<path d="M39.2083 54.6609L31.2422 52.3162L36.8637 49.7456L39.2083 54.6609ZM50.762 54.6609L53.1066 49.7456L58.7563 52.3162L50.762 54.6609Z" fill="#233447" stroke="#233447" stroke-width="0.803515" stroke-linecap="round" stroke-linejoin="round"/>
<path d="M30.1695 69.887L31.5254 58.4181L22.6836 58.6723L30.1695 69.887ZM58.4746 58.4181L59.8305 69.887L67.3164 58.6723L58.4746 58.4181ZM65.2542 45.791L49.3785 46.4972L50.8474 54.661L53.1921 49.7458L58.8418 52.3164L65.2542 45.791ZM31.2429 52.3164L36.8926 49.7458L39.209 54.661L40.7062 46.4972L24.8022 45.791L31.2429 52.3164Z" fill="#CD6116" stroke="#CD6116" stroke-width="0.803515" stroke-linecap="round" stroke-linejoin="round"/>
<path d="M24.8027 45.791L31.4694 58.7854L31.2434 52.3164L24.8027 45.791ZM58.7858 52.3164L58.5033 58.7854L65.1982 45.791L58.7858 52.3164ZM40.7067 46.4972L39.2095 54.6611L41.0739 64.2938L41.4976 51.6102L40.7067 46.4972ZM49.2943 46.4972L48.5315 51.582L48.8705 64.2938L50.7632 54.6611L49.2943 46.4972Z" fill="#E4751F" stroke="#E4751F" stroke-width="0.803515" stroke-linecap="round" stroke-linejoin="round"/>
<path d="M50.762 54.661L48.8693 64.2938L50.2252 65.226L58.4738 58.7853L58.7563 52.3164L50.762 54.661ZM31.2422 52.3164L31.4682 58.7853L39.7168 65.226L41.0727 64.2938L39.2083 54.661L31.2422 52.3164Z" fill="#F6851B" stroke="#F6851B" stroke-width="0.803515" stroke-linecap="round" stroke-linejoin="round"/>
<path d="M50.8477 74.0962L50.9325 71.4691L50.2263 70.8477H39.6048L38.9551 71.4691L39.0116 74.0962L30.1133 69.8872L33.2206 72.4296L39.5201 76.8081H50.3393L56.667 72.4296L59.7743 69.8872L50.8477 74.0962Z" fill="#C0AD9E" stroke="#C0AD9E" stroke-width="0.803515" stroke-linecap="round" stroke-linejoin="round"/>
<path d="M50.2548 65.2261L48.8989 64.2939H41.1305L39.7746 65.2261L39.0684 71.4691L39.7181 70.8476H50.3395L51.0458 71.4691L50.2548 65.2261Z" fill="#161616" stroke="#161616" stroke-width="0.803515" stroke-linecap="round" stroke-linejoin="round"/>
<path d="M78.6152 32.26L81.0163 20.7345L77.4287 10.0283L50.2536 30.1978L60.7056 39.0396L75.4796 43.3617L78.7564 39.5481L77.344 38.5311L79.6039 36.469L77.8525 35.1131L80.1124 33.3899L78.6152 32.26ZM8.98242 20.7345L11.3836 32.26L9.85813 33.3899L12.118 35.1131L10.3949 36.469L12.6547 38.5311L11.2423 39.5481L14.4909 43.3617L29.2649 39.0396L39.7169 30.1978L12.5417 10.0283L8.98242 20.7345Z" fill="#763D16" stroke="#763D16" stroke-width="0.803515" stroke-linecap="round" stroke-linejoin="round"/>
<path d="M75.4801 43.3616L60.7061 39.0396L65.1976 45.791L58.5027 58.7853L67.3163 58.6723H80.4519L75.4801 43.3616ZM29.2654 39.0396L14.4914 43.3616L9.57617 58.6723H22.6835L31.4688 58.7853L24.8022 45.791L29.2654 39.0396ZM49.2937 46.4972L50.2259 30.1978L54.5197 18.5876H35.4519L39.6892 30.1978L40.6779 46.4972L41.0169 51.6384L41.0451 64.2938H48.8135L48.87 51.6384L49.2937 46.4972Z" fill="#F6851B" stroke="#F6851B" stroke-width="0.803515" stroke-linecap="round" stroke-linejoin="round"/>
</svg>